%TF.GenerationSoftware,KiCad,Pcbnew,9.0.0*%
%TF.CreationDate,2025-03-14T14:05:31+03:00*%
%TF.ProjectId,getting-started,67657474-696e-4672-9d73-746172746564,0*%
%TF.SameCoordinates,Original*%
%TF.FileFunction,Legend,Bot*%
%TF.FilePolarity,Positive*%
%FSLAX46Y46*%
G04 Gerber Fmt 4.6, Leading zero omitted, Abs format (unit mm)*
G04 Created by KiCad (PCBNEW 9.0.0) date 2025-03-14 14:05:31*
%MOMM*%
%LPD*%
G01*
G04 APERTURE LIST*
%ADD10C,0.150000*%
%ADD11C,0.120000*%
G04 APERTURE END LIST*
D10*
X131785714Y-110551009D02*
X131642857Y-110598628D01*
X131642857Y-110598628D02*
X131595238Y-110646247D01*
X131595238Y-110646247D02*
X131547619Y-110741485D01*
X131547619Y-110741485D02*
X131547619Y-110884342D01*
X131547619Y-110884342D02*
X131595238Y-110979580D01*
X131595238Y-110979580D02*
X131642857Y-111027200D01*
X131642857Y-111027200D02*
X131738095Y-111074819D01*
X131738095Y-111074819D02*
X132119047Y-111074819D01*
X132119047Y-111074819D02*
X132119047Y-110074819D01*
X132119047Y-110074819D02*
X131785714Y-110074819D01*
X131785714Y-110074819D02*
X131690476Y-110122438D01*
X131690476Y-110122438D02*
X131642857Y-110170057D01*
X131642857Y-110170057D02*
X131595238Y-110265295D01*
X131595238Y-110265295D02*
X131595238Y-110360533D01*
X131595238Y-110360533D02*
X131642857Y-110455771D01*
X131642857Y-110455771D02*
X131690476Y-110503390D01*
X131690476Y-110503390D02*
X131785714Y-110551009D01*
X131785714Y-110551009D02*
X132119047Y-110551009D01*
X131261904Y-110074819D02*
X130690476Y-110074819D01*
X130976190Y-111074819D02*
X130976190Y-110074819D01*
X129833333Y-111074819D02*
X130404761Y-111074819D01*
X130119047Y-111074819D02*
X130119047Y-110074819D01*
X130119047Y-110074819D02*
X130214285Y-110217676D01*
X130214285Y-110217676D02*
X130309523Y-110312914D01*
X130309523Y-110312914D02*
X130404761Y-110360533D01*
D11*
%TO.C,BT1*%
X116690000Y-101100000D02*
X116690000Y-99390000D01*
X116690000Y-104900000D02*
X116690000Y-106610000D01*
X116690000Y-106610000D02*
X120308000Y-106610000D01*
X120308000Y-99390000D02*
X116690000Y-99390000D01*
X123152700Y-111110000D02*
X127140000Y-111110000D01*
X129340000Y-108910000D02*
X127140000Y-111110000D01*
X129340000Y-108910000D02*
X132660000Y-108910000D01*
X132660000Y-108910000D02*
X134860000Y-111110000D01*
X134860000Y-111110000D02*
X138847300Y-111110000D01*
X138847300Y-94890000D02*
X123152700Y-94890000D01*
X141692000Y-106610000D02*
X145310000Y-106610000D01*
X145310000Y-99390000D02*
X141692000Y-99390000D01*
X145310000Y-101100000D02*
X145310000Y-99390000D01*
X145310000Y-104900000D02*
X145310000Y-106610000D01*
X120308000Y-99390000D02*
G75*
G02*
X123154629Y-94888211I10692020J-3610012D01*
G01*
X123154629Y-111111789D02*
G75*
G02*
X120308000Y-106610000I7845391J8111801D01*
G01*
X138845371Y-94888211D02*
G75*
G02*
X141691999Y-99390000I-7845391J-8111799D01*
G01*
X141692000Y-106610000D02*
G75*
G02*
X138845371Y-111111789I-10691979J3609986D01*
G01*
%TD*%
M02*
