%TF.GenerationSoftware,KiCad,Pcbnew,9.0.0*%
%TF.CreationDate,2025-03-14T14:05:31+03:00*%
%TF.ProjectId,getting-started,67657474-696e-4672-9d73-746172746564,0*%
%TF.SameCoordinates,Original*%
%TF.FileFunction,Copper,L2,Bot*%
%TF.FilePolarity,Positive*%
%FSLAX46Y46*%
G04 Gerber Fmt 4.6, Leading zero omitted, Abs format (unit mm)*
G04 Created by KiCad (PCBNEW 9.0.0) date 2025-03-14 14:05:31*
%MOMM*%
%LPD*%
G01*
G04 APERTURE LIST*
%TA.AperFunction,ComponentPad*%
%ADD10C,1.600000*%
%TD*%
%TA.AperFunction,ComponentPad*%
%ADD11O,1.600000X1.600000*%
%TD*%
%TA.AperFunction,ComponentPad*%
%ADD12R,1.800000X1.800000*%
%TD*%
%TA.AperFunction,ComponentPad*%
%ADD13C,1.800000*%
%TD*%
%TA.AperFunction,SMDPad,CuDef*%
%ADD14R,2.540000X3.510000*%
%TD*%
%TA.AperFunction,ViaPad*%
%ADD15C,0.600000*%
%TD*%
%TA.AperFunction,Conductor*%
%ADD16C,0.200000*%
%TD*%
%TA.AperFunction,Conductor*%
%ADD17C,0.250000*%
%TD*%
G04 APERTURE END LIST*
D10*
%TO.P,R1,1*%
%TO.N,VCC*%
X152850000Y-120000000D03*
D11*
%TO.P,R1,2*%
%TO.N,/led*%
X140150000Y-120000000D03*
%TD*%
D12*
%TO.P,D1,1,K*%
%TO.N,GND*%
X116460000Y-117000000D03*
D13*
%TO.P,D1,2,A*%
%TO.N,/led*%
X116460000Y-119540000D03*
%TD*%
D14*
%TO.P,BT1,1,+*%
%TO.N,VCC*%
X145680000Y-103000000D03*
%TO.P,BT1,2,-*%
%TO.N,GND*%
X116320000Y-103000000D03*
%TD*%
D15*
%TO.N,VCC*%
X146000000Y-112000000D03*
%TD*%
D16*
%TO.N,VCC*%
X146000000Y-112000000D02*
X145680000Y-111680000D01*
X145680000Y-111680000D02*
X145680000Y-103000000D01*
D17*
%TO.N,GND*%
X116320000Y-103000000D02*
X116320000Y-116860000D01*
X116320000Y-116860000D02*
X116460000Y-117000000D01*
%TD*%
%TA.AperFunction,Conductor*%
%TO.N,GND*%
G36*
X159442539Y-80520185D02*
G01*
X159488294Y-80572989D01*
X159499500Y-80624500D01*
X159499500Y-129375500D01*
X159479815Y-129442539D01*
X159427011Y-129488294D01*
X159375500Y-129499500D01*
X100624500Y-129499500D01*
X100557461Y-129479815D01*
X100511706Y-129427011D01*
X100500500Y-129375500D01*
X100500500Y-119429778D01*
X115059500Y-119429778D01*
X115059500Y-119650221D01*
X115093985Y-119867952D01*
X115162103Y-120077603D01*
X115162104Y-120077606D01*
X115262187Y-120274025D01*
X115391752Y-120452358D01*
X115391756Y-120452363D01*
X115547636Y-120608243D01*
X115547641Y-120608247D01*
X115648618Y-120681610D01*
X115725978Y-120737815D01*
X115854375Y-120803237D01*
X115922393Y-120837895D01*
X115922396Y-120837896D01*
X116027221Y-120871955D01*
X116132049Y-120906015D01*
X116349778Y-120940500D01*
X116349779Y-120940500D01*
X116570221Y-120940500D01*
X116570222Y-120940500D01*
X116787951Y-120906015D01*
X116997606Y-120837895D01*
X117194022Y-120737815D01*
X117372365Y-120608242D01*
X117528242Y-120452365D01*
X117657815Y-120274022D01*
X117757895Y-120077606D01*
X117816366Y-119897648D01*
X138849500Y-119897648D01*
X138849500Y-120102351D01*
X138881522Y-120304534D01*
X138944781Y-120499223D01*
X139037715Y-120681613D01*
X139158028Y-120847213D01*
X139302786Y-120991971D01*
X139457749Y-121104556D01*
X139468390Y-121112287D01*
X139584607Y-121171503D01*
X139650776Y-121205218D01*
X139650778Y-121205218D01*
X139650781Y-121205220D01*
X139755137Y-121239127D01*
X139845465Y-121268477D01*
X139946557Y-121284488D01*
X140047648Y-121300500D01*
X140047649Y-121300500D01*
X140252351Y-121300500D01*
X140252352Y-121300500D01*
X140454534Y-121268477D01*
X140649219Y-121205220D01*
X140831610Y-121112287D01*
X140924590Y-121044732D01*
X140997213Y-120991971D01*
X140997215Y-120991968D01*
X140997219Y-120991966D01*
X141141966Y-120847219D01*
X141141968Y-120847215D01*
X141141971Y-120847213D01*
X141221454Y-120737812D01*
X141262287Y-120681610D01*
X141355220Y-120499219D01*
X141418477Y-120304534D01*
X141450500Y-120102352D01*
X141450500Y-119897648D01*
X151549500Y-119897648D01*
X151549500Y-120102351D01*
X151581522Y-120304534D01*
X151644781Y-120499223D01*
X151737715Y-120681613D01*
X151858028Y-120847213D01*
X152002786Y-120991971D01*
X152157749Y-121104556D01*
X152168390Y-121112287D01*
X152284607Y-121171503D01*
X152350776Y-121205218D01*
X152350778Y-121205218D01*
X152350781Y-121205220D01*
X152455137Y-121239127D01*
X152545465Y-121268477D01*
X152646557Y-121284488D01*
X152747648Y-121300500D01*
X152747649Y-121300500D01*
X152952351Y-121300500D01*
X152952352Y-121300500D01*
X153154534Y-121268477D01*
X153349219Y-121205220D01*
X153531610Y-121112287D01*
X153624590Y-121044732D01*
X153697213Y-120991971D01*
X153697215Y-120991968D01*
X153697219Y-120991966D01*
X153841966Y-120847219D01*
X153841968Y-120847215D01*
X153841971Y-120847213D01*
X153921454Y-120737812D01*
X153962287Y-120681610D01*
X154055220Y-120499219D01*
X154118477Y-120304534D01*
X154150500Y-120102352D01*
X154150500Y-119897648D01*
X154118477Y-119695466D01*
X154055220Y-119500781D01*
X154055218Y-119500778D01*
X154055218Y-119500776D01*
X154019042Y-119429778D01*
X153962287Y-119318390D01*
X153954556Y-119307749D01*
X153841971Y-119152786D01*
X153697213Y-119008028D01*
X153531613Y-118887715D01*
X153531612Y-118887714D01*
X153531610Y-118887713D01*
X153474653Y-118858691D01*
X153349223Y-118794781D01*
X153154534Y-118731522D01*
X152979995Y-118703878D01*
X152952352Y-118699500D01*
X152747648Y-118699500D01*
X152723329Y-118703351D01*
X152545465Y-118731522D01*
X152350776Y-118794781D01*
X152168386Y-118887715D01*
X152002786Y-119008028D01*
X151858028Y-119152786D01*
X151737715Y-119318386D01*
X151644781Y-119500776D01*
X151581522Y-119695465D01*
X151549500Y-119897648D01*
X141450500Y-119897648D01*
X141418477Y-119695466D01*
X141355220Y-119500781D01*
X141355218Y-119500778D01*
X141355218Y-119500776D01*
X141319042Y-119429778D01*
X141262287Y-119318390D01*
X141254556Y-119307749D01*
X141141971Y-119152786D01*
X140997213Y-119008028D01*
X140831613Y-118887715D01*
X140831612Y-118887714D01*
X140831610Y-118887713D01*
X140774653Y-118858691D01*
X140649223Y-118794781D01*
X140454534Y-118731522D01*
X140279995Y-118703878D01*
X140252352Y-118699500D01*
X140047648Y-118699500D01*
X140023329Y-118703351D01*
X139845465Y-118731522D01*
X139650776Y-118794781D01*
X139468386Y-118887715D01*
X139302786Y-119008028D01*
X139158028Y-119152786D01*
X139037715Y-119318386D01*
X138944781Y-119500776D01*
X138881522Y-119695465D01*
X138849500Y-119897648D01*
X117816366Y-119897648D01*
X117826015Y-119867951D01*
X117860500Y-119650222D01*
X117860500Y-119429778D01*
X117826015Y-119212049D01*
X117757895Y-119002394D01*
X117757895Y-119002393D01*
X117723237Y-118934375D01*
X117657815Y-118805978D01*
X117580455Y-118699500D01*
X117528247Y-118627641D01*
X117528243Y-118627636D01*
X117477683Y-118577076D01*
X117444198Y-118515753D01*
X117449182Y-118446061D01*
X117491054Y-118390128D01*
X117522031Y-118373213D01*
X117602086Y-118343354D01*
X117602093Y-118343350D01*
X117717187Y-118257190D01*
X117717190Y-118257187D01*
X117803350Y-118142093D01*
X117803354Y-118142086D01*
X117853596Y-118007379D01*
X117853598Y-118007372D01*
X117859999Y-117947844D01*
X117860000Y-117947827D01*
X117860000Y-117250000D01*
X116835278Y-117250000D01*
X116879333Y-117173694D01*
X116910000Y-117059244D01*
X116910000Y-116940756D01*
X116879333Y-116826306D01*
X116835278Y-116750000D01*
X117860000Y-116750000D01*
X117860000Y-116052172D01*
X117859999Y-116052155D01*
X117853598Y-115992627D01*
X117853596Y-115992620D01*
X117803354Y-115857913D01*
X117803350Y-115857906D01*
X117717190Y-115742812D01*
X117717187Y-115742809D01*
X117602093Y-115656649D01*
X117602086Y-115656645D01*
X117467379Y-115606403D01*
X117467372Y-115606401D01*
X117407844Y-115600000D01*
X116710000Y-115600000D01*
X116710000Y-116624722D01*
X116633694Y-116580667D01*
X116519244Y-116550000D01*
X116400756Y-116550000D01*
X116286306Y-116580667D01*
X116210000Y-116624722D01*
X116210000Y-115600000D01*
X115512155Y-115600000D01*
X115452627Y-115606401D01*
X115452620Y-115606403D01*
X115317913Y-115656645D01*
X115317906Y-115656649D01*
X115202812Y-115742809D01*
X115202809Y-115742812D01*
X115116649Y-115857906D01*
X115116645Y-115857913D01*
X115066403Y-115992620D01*
X115066401Y-115992627D01*
X115060000Y-116052155D01*
X115060000Y-116750000D01*
X116084722Y-116750000D01*
X116040667Y-116826306D01*
X116010000Y-116940756D01*
X116010000Y-117059244D01*
X116040667Y-117173694D01*
X116084722Y-117250000D01*
X115060000Y-117250000D01*
X115060000Y-117947844D01*
X115066401Y-118007372D01*
X115066403Y-118007379D01*
X115116645Y-118142086D01*
X115116649Y-118142093D01*
X115202809Y-118257187D01*
X115202812Y-118257190D01*
X115317906Y-118343350D01*
X115317913Y-118343354D01*
X115397968Y-118373213D01*
X115453902Y-118415084D01*
X115478319Y-118480549D01*
X115463467Y-118548822D01*
X115442317Y-118577075D01*
X115391756Y-118627636D01*
X115391752Y-118627641D01*
X115262187Y-118805974D01*
X115162104Y-119002393D01*
X115162103Y-119002396D01*
X115093985Y-119212047D01*
X115059500Y-119429778D01*
X100500500Y-119429778D01*
X100500500Y-104802844D01*
X114550000Y-104802844D01*
X114556401Y-104862372D01*
X114556403Y-104862379D01*
X114606645Y-104997086D01*
X114606649Y-104997093D01*
X114692809Y-105112187D01*
X114692812Y-105112190D01*
X114807906Y-105198350D01*
X114807913Y-105198354D01*
X114942620Y-105248596D01*
X114942627Y-105248598D01*
X115002155Y-105254999D01*
X115002172Y-105255000D01*
X116070000Y-105255000D01*
X116570000Y-105255000D01*
X117637828Y-105255000D01*
X117637844Y-105254999D01*
X117697372Y-105248598D01*
X117697379Y-105248596D01*
X117832086Y-105198354D01*
X117832093Y-105198350D01*
X117947187Y-105112190D01*
X117947190Y-105112187D01*
X118033350Y-104997093D01*
X118033354Y-104997086D01*
X118083596Y-104862379D01*
X118083598Y-104862372D01*
X118089999Y-104802844D01*
X118090000Y-104802827D01*
X118090000Y-103250000D01*
X116570000Y-103250000D01*
X116570000Y-105255000D01*
X116070000Y-105255000D01*
X116070000Y-103250000D01*
X114550000Y-103250000D01*
X114550000Y-104802844D01*
X100500500Y-104802844D01*
X100500500Y-101197155D01*
X114550000Y-101197155D01*
X114550000Y-102750000D01*
X116070000Y-102750000D01*
X116570000Y-102750000D01*
X118090000Y-102750000D01*
X118090000Y-101197164D01*
X118089997Y-101197135D01*
X143909500Y-101197135D01*
X143909500Y-104802870D01*
X143909501Y-104802876D01*
X143915908Y-104862483D01*
X143966202Y-104997328D01*
X143966206Y-104997335D01*
X144052452Y-105112544D01*
X144052455Y-105112547D01*
X144167664Y-105198793D01*
X144167671Y-105198797D01*
X144212618Y-105215561D01*
X144302517Y-105249091D01*
X144362127Y-105255500D01*
X144955500Y-105255499D01*
X145022539Y-105275183D01*
X145068294Y-105327987D01*
X145079500Y-105379499D01*
X145079500Y-111593330D01*
X145079499Y-111593348D01*
X145079499Y-111759054D01*
X145079498Y-111759054D01*
X145079499Y-111759057D01*
X145120423Y-111911785D01*
X145120424Y-111911787D01*
X145120423Y-111911787D01*
X145125709Y-111920941D01*
X145125711Y-111920944D01*
X145182887Y-112019976D01*
X145197084Y-112072961D01*
X145198903Y-112072782D01*
X145199500Y-112078846D01*
X145230261Y-112233489D01*
X145230264Y-112233501D01*
X145290602Y-112379172D01*
X145290609Y-112379185D01*
X145378210Y-112510288D01*
X145378213Y-112510292D01*
X145489707Y-112621786D01*
X145489711Y-112621789D01*
X145620814Y-112709390D01*
X145620827Y-112709397D01*
X145766498Y-112769735D01*
X145766503Y-112769737D01*
X145921153Y-112800499D01*
X145921156Y-112800500D01*
X145921158Y-112800500D01*
X146078844Y-112800500D01*
X146078845Y-112800499D01*
X146233497Y-112769737D01*
X146379179Y-112709394D01*
X146510289Y-112621789D01*
X146621789Y-112510289D01*
X146709394Y-112379179D01*
X146769737Y-112233497D01*
X146800500Y-112078842D01*
X146800500Y-111921158D01*
X146800500Y-111921155D01*
X146800499Y-111921153D01*
X146769738Y-111766510D01*
X146769737Y-111766503D01*
X146766652Y-111759054D01*
X146709397Y-111620827D01*
X146709390Y-111620814D01*
X146621789Y-111489711D01*
X146621786Y-111489707D01*
X146510292Y-111378213D01*
X146510288Y-111378210D01*
X146379185Y-111290609D01*
X146379170Y-111290601D01*
X146357046Y-111281437D01*
X146302643Y-111237596D01*
X146280579Y-111171301D01*
X146280500Y-111166877D01*
X146280500Y-105379499D01*
X146300185Y-105312460D01*
X146352989Y-105266705D01*
X146404500Y-105255499D01*
X146997871Y-105255499D01*
X146997872Y-105255499D01*
X147057483Y-105249091D01*
X147192331Y-105198796D01*
X147307546Y-105112546D01*
X147393796Y-104997331D01*
X147444091Y-104862483D01*
X147450500Y-104802873D01*
X147450499Y-101197128D01*
X147444091Y-101137517D01*
X147393884Y-101002906D01*
X147393797Y-101002671D01*
X147393793Y-101002664D01*
X147307547Y-100887455D01*
X147307544Y-100887452D01*
X147192335Y-100801206D01*
X147192328Y-100801202D01*
X147057482Y-100750908D01*
X147057483Y-100750908D01*
X146997883Y-100744501D01*
X146997881Y-100744500D01*
X146997873Y-100744500D01*
X146997864Y-100744500D01*
X144362129Y-100744500D01*
X144362123Y-100744501D01*
X144302516Y-100750908D01*
X144167671Y-100801202D01*
X144167664Y-100801206D01*
X144052455Y-100887452D01*
X144052452Y-100887455D01*
X143966206Y-101002664D01*
X143966202Y-101002671D01*
X143915908Y-101137517D01*
X143909501Y-101197116D01*
X143909501Y-101197123D01*
X143909500Y-101197135D01*
X118089997Y-101197135D01*
X118083598Y-101137627D01*
X118083596Y-101137620D01*
X118033354Y-101002913D01*
X118033350Y-101002906D01*
X117947190Y-100887812D01*
X117947187Y-100887809D01*
X117832093Y-100801649D01*
X117832086Y-100801645D01*
X117697379Y-100751403D01*
X117697372Y-100751401D01*
X117637844Y-100745000D01*
X116570000Y-100745000D01*
X116570000Y-102750000D01*
X116070000Y-102750000D01*
X116070000Y-100745000D01*
X115002155Y-100745000D01*
X114942627Y-100751401D01*
X114942620Y-100751403D01*
X114807913Y-100801645D01*
X114807906Y-100801649D01*
X114692812Y-100887809D01*
X114692809Y-100887812D01*
X114606649Y-101002906D01*
X114606645Y-101002913D01*
X114556403Y-101137620D01*
X114556401Y-101137627D01*
X114550000Y-101197155D01*
X100500500Y-101197155D01*
X100500500Y-80624500D01*
X100520185Y-80557461D01*
X100572989Y-80511706D01*
X100624500Y-80500500D01*
X159375500Y-80500500D01*
X159442539Y-80520185D01*
G37*
%TD.AperFunction*%
%TD*%
M02*
