%TF.GenerationSoftware,KiCad,Pcbnew,9.0.0*%
%TF.CreationDate,2025-03-14T14:05:50+03:00*%
%TF.ProjectId,getting-started,67657474-696e-4672-9d73-746172746564,0*%
%TF.SameCoordinates,Original*%
%TF.FileFunction,Drillmap*%
%TF.FilePolarity,Positive*%
%FSLAX45Y45*%
G04 Gerber Fmt 4.5, Leading zero omitted, Abs format (unit mm)*
G04 Created by KiCad (PCBNEW 9.0.0) date 2025-03-14 14:05:50*
%MOMM*%
%LPD*%
G01*
G04 APERTURE LIST*
%ADD10C,0.050000*%
%ADD11C,0.200000*%
G04 APERTURE END LIST*
D10*
X10000000Y-8000000D02*
X16000000Y-8000000D01*
X16000000Y-13000000D01*
X10000000Y-13000000D01*
X10000000Y-8000000D01*
D11*
X10258277Y-13313984D02*
X10258277Y-13113984D01*
X10258277Y-13113984D02*
X10305896Y-13113984D01*
X10305896Y-13113984D02*
X10334467Y-13123508D01*
X10334467Y-13123508D02*
X10353515Y-13142555D01*
X10353515Y-13142555D02*
X10363039Y-13161603D01*
X10363039Y-13161603D02*
X10372563Y-13199698D01*
X10372563Y-13199698D02*
X10372563Y-13228269D01*
X10372563Y-13228269D02*
X10363039Y-13266365D01*
X10363039Y-13266365D02*
X10353515Y-13285412D01*
X10353515Y-13285412D02*
X10334467Y-13304460D01*
X10334467Y-13304460D02*
X10305896Y-13313984D01*
X10305896Y-13313984D02*
X10258277Y-13313984D01*
X10458277Y-13313984D02*
X10458277Y-13180650D01*
X10458277Y-13218746D02*
X10467801Y-13199698D01*
X10467801Y-13199698D02*
X10477324Y-13190174D01*
X10477324Y-13190174D02*
X10496372Y-13180650D01*
X10496372Y-13180650D02*
X10515420Y-13180650D01*
X10582086Y-13313984D02*
X10582086Y-13180650D01*
X10582086Y-13113984D02*
X10572563Y-13123508D01*
X10572563Y-13123508D02*
X10582086Y-13133031D01*
X10582086Y-13133031D02*
X10591610Y-13123508D01*
X10591610Y-13123508D02*
X10582086Y-13113984D01*
X10582086Y-13113984D02*
X10582086Y-13133031D01*
X10705896Y-13313984D02*
X10686848Y-13304460D01*
X10686848Y-13304460D02*
X10677324Y-13285412D01*
X10677324Y-13285412D02*
X10677324Y-13113984D01*
X10810658Y-13313984D02*
X10791610Y-13304460D01*
X10791610Y-13304460D02*
X10782086Y-13285412D01*
X10782086Y-13285412D02*
X10782086Y-13113984D01*
X11039229Y-13313984D02*
X11039229Y-13113984D01*
X11039229Y-13113984D02*
X11105896Y-13256841D01*
X11105896Y-13256841D02*
X11172563Y-13113984D01*
X11172563Y-13113984D02*
X11172563Y-13313984D01*
X11353515Y-13313984D02*
X11353515Y-13209222D01*
X11353515Y-13209222D02*
X11343991Y-13190174D01*
X11343991Y-13190174D02*
X11324943Y-13180650D01*
X11324943Y-13180650D02*
X11286848Y-13180650D01*
X11286848Y-13180650D02*
X11267801Y-13190174D01*
X11353515Y-13304460D02*
X11334467Y-13313984D01*
X11334467Y-13313984D02*
X11286848Y-13313984D01*
X11286848Y-13313984D02*
X11267801Y-13304460D01*
X11267801Y-13304460D02*
X11258277Y-13285412D01*
X11258277Y-13285412D02*
X11258277Y-13266365D01*
X11258277Y-13266365D02*
X11267801Y-13247317D01*
X11267801Y-13247317D02*
X11286848Y-13237793D01*
X11286848Y-13237793D02*
X11334467Y-13237793D01*
X11334467Y-13237793D02*
X11353515Y-13228269D01*
X11448753Y-13180650D02*
X11448753Y-13380650D01*
X11448753Y-13190174D02*
X11467801Y-13180650D01*
X11467801Y-13180650D02*
X11505896Y-13180650D01*
X11505896Y-13180650D02*
X11524943Y-13190174D01*
X11524943Y-13190174D02*
X11534467Y-13199698D01*
X11534467Y-13199698D02*
X11543991Y-13218746D01*
X11543991Y-13218746D02*
X11543991Y-13275888D01*
X11543991Y-13275888D02*
X11534467Y-13294936D01*
X11534467Y-13294936D02*
X11524943Y-13304460D01*
X11524943Y-13304460D02*
X11505896Y-13313984D01*
X11505896Y-13313984D02*
X11467801Y-13313984D01*
X11467801Y-13313984D02*
X11448753Y-13304460D01*
X11629705Y-13294936D02*
X11639229Y-13304460D01*
X11639229Y-13304460D02*
X11629705Y-13313984D01*
X11629705Y-13313984D02*
X11620182Y-13304460D01*
X11620182Y-13304460D02*
X11629705Y-13294936D01*
X11629705Y-13294936D02*
X11629705Y-13313984D01*
X11629705Y-13190174D02*
X11639229Y-13199698D01*
X11639229Y-13199698D02*
X11629705Y-13209222D01*
X11629705Y-13209222D02*
X11620182Y-13199698D01*
X11620182Y-13199698D02*
X11629705Y-13190174D01*
X11629705Y-13190174D02*
X11629705Y-13209222D01*
M02*
